<svg xmlns="http://www.w3.org/2000/svg" viewBox="0 0 398.51 468.82"><defs><style>.cls-1{fill:#eb0b2b;}.cls-2{fill:none;stroke:#141414;stroke-miterlimit:10;}.cls-3{fill:#e5e5e5;}</style></defs><g id="Capa_2" data-name="Capa 2"><g id="Negativo"><ellipse class="cls-1" cx="172.93" cy="269.52" rx="146.44" ry="143.7"/><path class="cls-2" d="M265.14,371.32v0"/><line class="cls-2" x1="250.34" y1="353.5" x2="250.32" y2="353.5"/><path class="cls-3" d="M398.51,67.33c-31.19,31.72-76.82,55.67-118.32,72.6A677.79,677.79,0,0,1,180.1,171.87c-23.47,51-57.58,71.77-112.55,81.92-3.23.59-6.55,1.17-9.92,1.69-1.73.28-3.41.56-5,.87C-3.2,266.65,3.67,293.92.38,310.65a20.4,20.4,0,0,0,4.46,17.1,19.14,19.14,0,0,0,2.7,2.7L10.59,333a20.57,20.57,0,0,1,2.06-5.87c7.76-14.73,31.66-20.25,31.66-20.25q1.88-1.26,3.86-2.32c10.2-5.59,22.48-7.94,35.58-8.15,34.85-.56,75.55,14.16,99.05,24.16,12,5.08,19.49,8.95,19.49,8.95.92-6.32-4.83-14-10.6-20a101.14,101.14,0,0,0-10.7-9.6A117.06,117.06,0,0,1,217.94,333c.57.78,1.12,1.57,1.65,2.35a9,9,0,0,1,.55.82c1.1,1.6,2.15,3.2,3.13,4.84.39.63.76,1.26,1.12,1.88s.79,1.34,1.17,2a2.93,2.93,0,0,1,.21.39c.46.78.89,1.56,1.3,2.37s1,1.89,1.49,2.87c.3.59.58,1.17.87,1.76l.26.56c.29.57.55,1.15.82,1.74,1.31,2.8,2.5,5.64,3.6,8.5s2.15,5.82,3.07,8.74c.16.47.3.93.43,1.38.73,2.31,1.38,4.63,2,6.95.19.78.41,1.57.58,2.35.59,2.32,1.1,4.62,1.56,6.9.27,1.29.52,2.56.75,3.83.28,1.55.55,3.1.8,4.63.44,2.77.82,5.52,1.13,8.22.24,2,.45,3.92.61,5.86q.28,3.24.48,6.37c.05.72.09,1.41.12,2.11.06.92.09,1.85.13,2.75,0,.66.05,1.31.07,1.95s0,1.15,0,1.71,0,1.11,0,1.67a219.61,219.61,0,0,1-2.79,40.27c5-9.21,9.8-28.77,13.67-48.73v0c5.11-26.44,8.68-53.62,9.3-58.44v0c0-.49.09-.75.09-.75,24.85,24.39,23.07,104.51,23.07,104.51,12.83-60.47-2-103.55-20.77-131.92-20.16-30.47-44.9-44-44.9-44l-.89-.87c-12.43-7-11.54-6.1-11.54-6.1,31-6.76,76.93-31.49,79.73-33-8.21,3.12-49.25,10.25-58.39,11.81"/><path class="cls-3" d="M298.51,0s-59,67.13-114.1,111.7c-24.28,19.65-47.8,34.89-65.17,38.1,0,0,16,43.55-31.95,83.61-3.82,3.19,40.82-1.74,72.77-71.42,0,0,57.56-14.47,97.3-32.88"/></g></g></svg>